<svg xmlns="http://www.w3.org/2000/svg" viewBox="19.999999999999986 20.616 207.79500000000002 201.938">
  <path d="M227.795 52.616l-96-32a11.985 11.985 0 0 0-7.59 0l-95.758 31.92l-.051.016l-.19.064c-.175.058-.342.128-.512.193a11.96 11.96 0 0 0-1.318.593c-.118.063-.232.133-.348.2c-.199.114-.395.23-.586.356c-.11.071-.216.145-.323.22q-.295.207-.575.43c-.09.072-.181.142-.27.216q-.334.282-.645.587c-.045.044-.092.084-.136.128q-.372.375-.71.78c-.063.076-.12.157-.182.234c-.155.196-.306.395-.448.6c-.079.112-.154.227-.228.343q-.175.27-.335.551c-.073.127-.146.253-.214.383c-.106.201-.202.408-.297.616c-.052.115-.11.227-.158.344c-.129.308-.243.623-.345.943c-.042.13-.076.265-.113.397a12.07 12.07 0 0 0-.169.655a12.105 12.105 0 0 0-.193 1.135c-.016.124-.034.247-.045.372c-.034.366-.056.735-.056 1.108v80a12 12 0 0 0 24 0V80.649l23.715 7.905a67.9 67.9 0 0 0 18.113 84.73a99.97 99.97 0 0 0-41.648 36.16a12 12 0 0 0 20.104 13.11a76.022 76.022 0 0 1 127.432 0a12 12 0 0 0 20.103-13.11a99.972 99.972 0 0 0-41.647-36.16a67.9 67.9 0 0 0 18.113-84.73l39.51-13.17a12 12 0 0 0 0-22.768zM128 44.65L186.053 64l-20.708 6.902l-.032.011L128 83.351L90.687 70.913l-.029-.01L69.948 64zM172 120a44 44 0 1 1-81.063-23.706l33.268 11.09a11.994 11.994 0 0 0 7.59 0l33.268-11.09A43.875 43.875 0 0 1 172 120z" fill="#000000"/>
</svg>