<svg xmlns="http://www.w3.org/2000/svg" viewBox="15.740000000000004 15.769999999999996 18.160000000000004 18.17">
  <path d="
M33.7 23.46l-2-.6a6.73 6.73 0 0 0-.58-1.42l1-1.86a.35.35 0 0 0-.07-.43l-1.45-1.46a.38.38 0 0 0-.43-.07l-1.85 1a7.74 7.74 0 0 0-1.43-.6l-.61-2a.38.38 0 0 0-.36-.25h-2.08a.38.38 0 0 0-.35.26l-.6 2a6.85 6.85 0 0 0-1.45.61l-1.81-1a.38.38 0 0 0-.44.06l-1.47 1.44a.37.37 0 0 0-.07.44l1 1.82a7.24 7.24 0 0 0-.65 1.43l-2 .61a.36.36 0 0 0-.26.35v2.05a.36.36 0 0 0 .26.35l2 .61a7.29 7.29 0 0 0 .6 1.41l-1 1.9a.37.37 0 0 0 .07.44L19.16 32a.38.38 0 0 0 .44.06l1.87-1a7.09 7.09 0 0 0 1.4.57l.6 2.05a.38.38 0 0 0 .36.26h2.05a.38.38 0 0 0 .35-.26l.6-2.05a6.68 6.68 0 0 0 1.38-.57l1.89 1a.38.38 0 0 0 .44-.06L32 30.55a.38.38 0 0 0 .06-.44l-1-1.88a6.92 6.92 0 0 0 .57-1.38l2-.61a.39.39 0 0 0 .27-.35v-2.07a.4.4 0 0 0-.2-.36zm-8.83 4.72a3.34 3.34 0 1 1 3.33-3.34a3.34 3.34 0 0 1-3.33 3.34z" fill="#000000"/>
</svg>